<svg width="75" height="64" viewBox="0 0 75 64" fill="none" xmlns="http://www.w3.org/2000/svg">
<path d="M6.8125 22.4542C6.8125 11.1226 14.3565 0.615051 24.6868 0.615051C31.8555 0.615051 37.1749 5.32943 40.4583 12.0172C43.7416 5.32982 49.061 0.615051 56.2299 0.615051C66.5614 0.615051 74.1042 11.1244 74.1042 22.4542C74.1042 46.7075 40.4583 63.9484 40.4583 63.9484C40.4583 63.9484 17.7943 53.0376 9.66864 35.1404H29.7408L32.9312 29.4689L36.6577 42.5124L45.3847 31.2921H56.2917V27.3338H43.4487L38.3214 33.926L34.1313 19.2612L27.4259 31.1821H8.15802C8.57756 32.5366 9.08577 33.8565 9.66864 35.1404L0.875 35.1402V31.1819L8.15802 31.1821C7.30023 28.413 6.8125 25.4993 6.8125 22.4542Z" fill="#0096FF"/>
</svg>
